<svg id="Livello_1" data-name="Livello 1" xmlns="http://www.w3.org/2000/svg" viewBox="0 0 55 55"><defs><style>.cls-1,.cls-2{fill:#acd480;}.cls-2{fill-rule:evenodd;}</style></defs><path class="cls-1" d="M38.31,17.57l-3.51,7a1.88,1.88,0,0,1-1.68,1H21.88a1.9,1.9,0,0,1-1.68-1l-3.51-7-3.9,13L27.5,42,42.21,30.56Z" transform="translate(0 0)"/><path class="cls-2" d="M27.5,55A27.5,27.5,0,1,0,0,27.5,27.5,27.5,0,0,0,27.5,55ZM32,21.88l5.1-10.22a1.88,1.88,0,0,1,3.48.3l5.62,18.75a1.88,1.88,0,0,1-.64,2L28.65,45.86a1.89,1.89,0,0,1-2.3,0L9.47,32.73a1.88,1.88,0,0,1-.64-2L14.45,12a1.88,1.88,0,0,1,3.48-.3L23,21.88Z" transform="translate(0 0)"/></svg>