<?xml version="1.0" encoding="utf-8"?>
<!-- Generator: Adobe Illustrator 25.0.0, SVG Export Plug-In . SVG Version: 6.00 Build 0)  -->
<svg version="1.1" id="Livello_1" xmlns="http://www.w3.org/2000/svg" xmlns:xlink="http://www.w3.org/1999/xlink" x="0px" y="0px"
	 viewBox="0 0 55 55" style="enable-background:new 0 0 55 55;" xml:space="preserve">
<style type="text/css">
	.st0{fill:#38ADFC;}
	.st1{fill-rule:evenodd;clip-rule:evenodd;fill:#38ADFC;}
</style>
<path class="st0" d="M38.3,17.6l-3.5,7c-0.3,0.6-1,1-1.7,1H21.9c-0.7,0-1.3-0.4-1.7-1l-3.5-7l-3.9,13L27.5,42l14.7-11.4L38.3,17.6z"
	/>
<path class="st1" d="M27.5,55C42.7,55,55,42.7,55,27.5S42.7,0,27.5,0S0,12.3,0,27.5S12.3,55,27.5,55z M32,21.9l5.1-10.2
	c0.5-0.9,1.6-1.3,2.5-0.8c0.5,0.2,0.8,0.6,1,1.1l5.6,18.8c0.2,0.7,0,1.5-0.6,2L28.6,45.9c-0.7,0.5-1.6,0.5-2.3,0L9.5,32.7
	c-0.6-0.5-0.9-1.3-0.6-2L14.4,12c0.3-1,1.3-1.6,2.3-1.3c0.5,0.1,0.9,0.5,1.1,1L23,21.9H32z"/>
</svg>
